<?xml version="1.0" encoding="UTF-8"?>
<!DOCTYPE svg PUBLIC "-//W3C//DTD SVG 1.1//EN" "http://www.w3.org/Graphics/SVG/1.1/DTD/svg11.dtd">
<!-- Creator: CorelDRAW X6 -->
<svg xmlns="http://www.w3.org/2000/svg" width="50" height="50" xml:space="preserve" version="1.1" style="shape-rendering:geometricPrecision; text-rendering:geometricPrecision; image-rendering:optimizeQuality; fill-rule:evenodd; clip-rule:evenodd"
viewBox="0 0 500 500"
 xmlns:xlink="http://www.w3.org/1999/xlink">
 <defs>
  <style type="text/css">
   <![CDATA[
    .fil1 {fill:#202020}
   ]]>
  </style>
 </defs>
 <g id="Layer_x0020_1">
  <metadata id="CorelCorpID_0Corel-Layer"/>
  <path class="fil1" d="M41 197l23 0c0,-36 29,-65 65,-65 23,0 46,0 69,0 22,0 39,-17 39,-38l26 0c0,36 -29,65 -65,65 -23,0 -46,0 -69,0 -21,0 -38,17 -38,38l368 0c12,0 21,10 21,21l0 167c0,12 -9,21 -21,21l-418 0c-12,0 -21,-9 -21,-21l0 -167c0,-11 9,-21 21,-21zm21 180l37 0 0 -38 -37 0 0 38zm0 -56l37 0 0 -38 -37 0 0 38zm0 -57l37 0 0 -38 -37 0 0 38zm56 113l264 0 0 -38 -264 0 0 38zm0 -56l38 0 0 -38 -38 0 0 38zm0 -57l38 0 0 -38 -38 0 0 38zm57 57l37 0 0 -38 -37 0 0 38zm0 -57l37 0 0 -38 -37 0 0 38zm56 57l38 0 0 -38 -38 0 0 38zm0 -57l38 0 0 -38 -38 0 0 38zm57 57l37 0 0 -38 -37 0 0 38zm0 -57l37 0 0 -38 -37 0 0 38zm56 57l38 0 0 -38 -38 0 0 38zm0 -57l38 0 0 -38 -38 0 0 38zm57 57l37 0 0 -38 -37 0 0 38zm0 -57l37 0 0 -38 -37 0 0 38zm0 113l37 0 0 -38 -37 0 0 38z"/>
 </g>
</svg>
