<?xml version="1.0" encoding="UTF-8" standalone="no"?>
<svg
   viewBox="0 0 474 112"
   version="1.1"
   id="svg289"
   sodipodi:docname="Logo_NEX.svg"
   inkscape:version="1.2.2 (732a01da63, 2022-12-09)"
   xmlns:inkscape="http://www.inkscape.org/namespaces/inkscape"
   xmlns:sodipodi="http://sodipodi.sourceforge.net/DTD/sodipodi-0.dtd"
   xmlns="http://www.w3.org/2000/svg"
   xmlns:svg="http://www.w3.org/2000/svg">
  <defs
     id="defs293" />
  <sodipodi:namedview
     id="namedview291"
     pagecolor="#ffffff"
     bordercolor="#000000"
     borderopacity="0.25"
     inkscape:showpageshadow="2"
     inkscape:pageopacity="0.0"
     inkscape:pagecheckerboard="0"
     inkscape:deskcolor="#d1d1d1"
     showgrid="false"
     inkscape:zoom="2.8284271"
     inkscape:cx="237.76465"
     inkscape:cy="46.492271"
     inkscape:window-width="1920"
     inkscape:window-height="1001"
     inkscape:window-x="-9"
     inkscape:window-y="-9"
     inkscape:window-maximized="1"
     inkscape:current-layer="svg289" />
  <path
     style="fill:#000000"
     d="m 116.40656,16.012857 18.64994,-0.08839 29.78687,57.364037 -0.53033,-46.669047 14.44543,-10.605371 0.60937,62.125 -18.75,15.625 -29.49462,-56.162377 0.57452,56.192892 -14.71666,-0.04419 z"
     id="path1220" />
  <path
     style="fill:#000000"
     d="m 189.48023,46.492641 v 14.125 l 40,-0.0625 -0.1875,-14.0625 z"
     id="path1222" />
  <path
     id="path1224"
     style="fill:#000000"
     d="m 239.70875,15.025844 0.74609,77.714844 46.0625,0.0625 8.16992,-14.136719 -39.06836,-0.08984 -0.26562,-17.412109 24.62695,0.06445 v -0.523437 c 2e-5,-0.490841 -8e-5,-0.981816 0,-1.472657 1.5e-4,-0.831316 9e-4,-1.662823 0.002,-2.49414 10e-4,-1.253541 7.3e-4,-2.506228 0.004,-3.759766 0.004,-1.228062 0.008,-2.455653 0.0273,-3.683594 0.0141,-0.735438 0.0253,-1.47161 0.084,-2.205078 l -24.83203,-0.06836 -0.26563,-17.941406 h 31.02539 l 8.39649,-14.054688 z" />
  <text
     xml:space="preserve"
     style="font-style:normal;font-variant:normal;font-weight:bold;font-stretch:normal;font-size:133.191px;font-family:Bahnschrift;-inkscape-font-specification:'Bahnschrift Bold';fill:#000000;stroke-width:11.0993"
     x="343.28989"
     y="80.664726"
     id="text1335"
     transform="scale(0.86794502,1.1521467)"><tspan
       sodipodi:role="line"
       id="tspan1333"
       x="343.28989"
       y="80.664726"
       style="stroke-width:11.0993">x</tspan></text>
</svg>
